# File created by Blade
# Date/Time:  Wed Jan 21 17:16:23 2015
# Frame Rate: 120.000 fps
#------------------------------------------------------
:FULLY-SPECIFIED
:DEGREES
1198
root 20.927882 5.722565 -15.852633 -184.604448 -10.634688 -214.341683
Spine 45.509912 -0.437391 -28.376810
Head 26.715403 37.736936 -10.277003
LeftShoulder -11.784402 -24.905265 -11.282102
LeftArm -27.144622 -3.523701 -53.325071
LeftForeArm -19.240592 0.000000 44.571055
LeftHand -11.204481 -0.000000 4.761053
LeftHandThumb1 -26.253704 0.000000 33.147579
RightShoulder -1.175050 -14.698316 -11.880737
RightArm 1.503290 -18.858083 75.768338
RightForeArm -40.378189 -0.000000 64.690359
RightHand -10.529212 -0.000000 -18.032354
RightHandThumb1 -24.326973 -0.000000 -32.862282
LeftUpLeg -16.035053 27.599106 22.401596
LeftLeg 151.094448 -0.000000 -0.000000
LeftFoot 40.206491 9.063535 18.119597
LeftToeBase 24.561027 -0.000000 -0.000000
RightUpLeg -115.435969 -10.718881 49.684773
RightLeg 141.108052 -0.000000 -0.000000
RightFoot 20.176526 -21.752947 23.770001
RightToeBase 33.668247 -0.000000 -0.000000
1199
root 20.916006 5.715112 -15.824607 -184.754268 -10.871172 -214.206172
Spine 45.311726 -0.481926 -28.610857
Head 26.819063 37.377024 -9.909660
LeftShoulder -11.734662 -24.779198 -11.046600
LeftArm -27.351984 -3.648674 -53.360923
LeftForeArm -19.259404 -0.000000 44.679738
LeftHand -11.229543 -0.000000 4.984464
LeftHandThumb1 -26.253704 0.000000 33.147579
RightShoulder -1.285304 -14.629532 -11.532809
RightArm 1.543767 -18.670986 75.829705
RightForeArm -40.464307 -0.000000 64.462172
RightHand -10.387176 0.000000 -17.484161
RightHandThumb1 -24.326973 -0.000000 -32.862282
LeftUpLeg -16.197674 27.486231 22.429739
LeftLeg 151.130839 -0.000000 -0.000000
LeftFoot 40.416551 8.763976 18.290664
LeftToeBase 23.456877 -0.000000 -0.000000
RightUpLeg -115.535272 -10.997897 49.721924
RightLeg 141.086629 -0.000000 -0.000000
RightFoot 20.152494 -21.512547 23.925904
RightToeBase 33.697128 -0.000000 -0.000000
1200
root 20.906492 5.706107 -15.795244 -184.912096 -11.111984 -214.064448
Spine 45.131588 -0.479064 -28.813072
Head 26.883227 36.955975 -9.549350
LeftShoulder -11.648286 -24.718512 -10.726233
LeftArm -27.604173 -4.025172 -53.396473
LeftForeArm -18.855723 -0.000000 44.667013
LeftHand -11.220286 -0.000000 4.586109
LeftHandThumb1 -26.253704 0.000000 33.147579
RightShoulder -1.466005 -14.598587 -11.185641
RightArm 1.660766 -18.605493 75.837942
RightForeArm -40.260686 0.000000 64.194515
RightHand -10.266336 -0.000000 -17.234461
RightHandThumb1 -24.326973 -0.000000 -32.862282
LeftUpLeg -16.351163 27.415257 22.462707
LeftLeg 151.172063 -0.000000 -0.000000
LeftFoot 40.666734 8.569387 18.596284
LeftToeBase 23.763919 -0.000000 -0.000000
RightUpLeg -115.622694 -11.302168 49.759380
RightLeg 141.063083 -0.000000 -0.000000
RightFoot 20.060641 -21.385659 24.164014
RightToeBase 33.864604 -0.000000 -0.000000
1201
root 20.899502 5.696291 -15.766640 -185.076627 -11.333546 -213.904332
Spine 44.937924 -0.458443 -28.997086
Head 26.969044 36.516765 -9.202291
LeftShoulder -11.553942 -24.600670 -10.544039
LeftArm -27.841351 -3.928928 -53.437007
LeftForeArm -19.069383 -0.000000 44.873177
LeftHand -11.251081 -0.000000 5.024240
LeftHandThumb1 -26.253704 0.000000 33.147579
RightShoulder -1.626436 -14.602141 -10.834504
RightArm 1.821833 -18.496817 75.863731
RightForeArm -40.085369 0.000000 63.861438
RightHand -10.040510 0.000000 -16.856523
RightHandThumb1 -24.326973 -0.000000 -32.862282
LeftUpLeg -16.473067 27.335816 22.532015
LeftLeg 151.232159 -0.000000 -0.000000
LeftFoot 40.825884 8.460919 18.895152
LeftToeBase 24.709488 -0.000000 -0.000000
RightUpLeg -115.650733 -11.503729 49.962508
RightLeg 141.003106 -0.000000 -0.000000
RightFoot 19.738002 -21.428798 24.326396
RightToeBase 34.025481 -0.000000 -0.000000
1202
root 20.893257 5.685249 -15.738265 -185.250315 -11.561723 -213.732661
Spine 44.749499 -0.429241 -29.154140
Head 27.029546 36.032786 -8.880084
LeftShoulder -11.464454 -24.440982 -10.304050
LeftArm -28.039741 -3.950606 -53.572911
LeftForeArm -19.315533 -0.000000 44.982309
LeftHand -11.235102 -0.000000 5.263054
LeftHandThumb1 -26.253704 0.000000 33.147579
RightShoulder -1.766107 -14.577661 -10.516783
RightArm 1.953881 -18.428255 75.931366
RightForeArm -39.907235 0.000000 63.482090
RightHand -9.908014 0.000000 -16.747108
RightHandThumb1 -24.326973 -0.000000 -32.862282
LeftUpLeg -16.557896 27.237782 22.632568
LeftLeg 151.300260 -0.000000 -0.000000
LeftFoot 41.023637 8.407490 19.254276
LeftToeBase 24.613203 -0.000000 -0.000000
RightUpLeg -115.696834 -11.751730 50.155237
RightLeg 140.929914 -0.000000 -0.000000
RightFoot 19.550875 -21.489788 24.448196
RightToeBase 34.312401 -0.000000 -0.000000
